FFmpeg version SVN-r25716, Copyright (c) 2000-2010 the FFmpeg developers  built on Nov 10 2010 12:23:18 with gcc 4.1.2 20080704 (Red Hat 4.1.2-48)  configuration: --enable-libmp3lame --enable-shared --disable-mmx --arch=x86_64  libavutil     50.33. 0 / 50.33. 0  libavcore      0.12. 1 /  0.12. 1  libavcodec    52.94. 4 / 52.94. 4  libavformat   52.84. 0 / 52.84. 0  libavdevice   52. 2. 2 / 52. 2. 2  libavfilter    1.59. 0 /  1.59. 0  libswscale     0.12. 0 /  0.12. 0Input #0, avi, from '/RAID10/data/converted_video_files/44511.avi':  Duration: 00:00:08.57, start: 0.000000, bitrate: 24320 kb/s    Stream #0.0: Video: mjpeg, yuvj420p, 1024x1024 [PAR 1:1 DAR 1:1], 7 tbr, 7 tbn, 7 tbc    Metadata:      title           : ImageJ AVI     [buffer @ 0x1974cf80] w:1024 h:1024 pixfmt:yuvj420p[ffsink @ 0x1974b8f0] auto-inserting filter 'auto-inserted scaler 0' between the filter 'src' and the filter 'out'[scale @ 0x1974bc10] w:1024 h:1024 fmt:yuvj420p -> w:1024 h:1024 fmt:yuv420p flags:0x4Output #0, flv, to '/RAID10/data/converted_video_files/44511.flv':  Metadata:    encoder         : Lavf52.84.0    Stream #0.0: Video: flv, yuv420p, 1024x1024 [PAR 1:1 DAR 1:1], q=2-31, 600 kb/s, 1k tbn, 24 tbc    Metadata:      title           : ImageJ AVI     Stream mapping:  Stream #0.0 -> #0.0Press [q] to stop encodingframe=    7 fps=  0 q=14.8 size=    2796kB time=0.92 bitrate=24975.0kbits/s    frame=   12 fps= 10 q=29.6 size=    3283kB time=1.62 bitrate=16552.2kbits/s    frame=   20 fps= 11 q=31.0 size=    3806kB time=2.75 bitrate=11343.0kbits/s    frame=   24 fps= 10 q=31.0 size=    4041kB time=3.33 bitrate=9928.3kbits/s    frame=   30 fps= 11 q=31.0 size=    4455kB time=4.17 bitrate=8759.1kbits/s    frame=   36 fps= 11 q=31.0 size=    4828kB time=5.04 bitrate=7844.0kbits/s    frame=   43 fps= 11 q=31.0 size=    5332kB time=6.04 bitrate=7229.5kbits/s    frame=   48 fps= 10 q=31.0 size=    5616kB time=6.75 bitrate=6815.5kbits/s    frame=   52 fps= 10 q=31.0 size=    5942kB time=7.33 bitrate=6637.5kbits/s    frame=   59 fps= 10 q=31.0 size=    6345kB time=8.33 bitrate=6237.2kbits/s    frame=   60 fps= 10 q=31.0 Lsize=    6399kB time=8.46 bitrate=6197.1kbits/s    video:6398kB audio:0kB global headers:0kB muxing overhead 0.017858%